<svg width="774" height="231" viewBox="0 0 774 231" fill="none" xmlns="http://www.w3.org/2000/svg">
<path d="M53.4539 62.5664V65.3689H83.3876V88.4894H53.4539V225.812H14.9678V88.4894H0.000976562V65.3689H14.9678V61.8658C14.9678 21.2296 37.0617 0.210938 76.9732 0.210938H102.631V34.5415H81.2495C63.4318 34.5415 53.4539 45.7514 53.4539 62.5664Z" fill="black"/>
<path d="M116.885 225.109V4.41309H155.371V225.109H116.885Z" fill="black"/>
<path d="M202.408 42.2467C192.431 42.2467 184.591 34.5399 184.591 24.0305V22.6293C184.591 12.8206 192.431 4.41309 202.408 4.41309H204.547C214.524 4.41309 223.077 12.1199 223.077 22.6293V24.7311C223.077 34.5399 214.524 42.9473 204.547 42.9473H202.408V42.2467ZM184.591 225.109V65.3673H223.077V225.81H184.591V225.109Z" fill="black"/>
<path d="M412.657 138.232V153.646C412.657 195.683 378.447 230.014 336.397 230.014C293.635 230.014 274.392 187.976 274.392 187.976V194.282C274.392 199.186 276.53 204.091 279.381 207.594C285.083 215.301 291.497 220.205 291.497 220.205V225.81H253.011V4.41309H291.497V77.9785C302.187 68.1698 317.154 61.8642 336.397 61.8642C378.447 61.8642 412.657 96.1947 412.657 138.232ZM374.171 138.933C374.171 117.213 357.066 99.6978 334.972 99.6978H329.983C308.602 99.6978 290.784 117.213 290.784 138.933V152.245C290.784 173.964 308.602 191.479 329.983 191.479H334.972C356.353 191.479 374.171 173.964 374.171 152.245V138.933Z" fill="black"/>
<path d="M596.537 138.232V153.646C596.537 195.683 562.327 230.014 520.277 230.014C477.515 230.014 458.272 187.976 458.272 187.976V194.282C458.272 199.186 460.41 204.091 463.261 207.594C468.962 215.301 475.377 220.205 475.377 220.205V225.81H436.891V4.41309H475.377V77.9785C486.067 68.1698 501.034 61.8642 520.277 61.8642C562.327 61.8642 596.537 96.1947 596.537 138.232ZM558.051 138.933C558.051 117.213 540.946 99.6978 518.852 99.6978H513.863C492.482 99.6978 474.664 117.213 474.664 138.933V152.245C474.664 173.964 492.482 191.479 513.863 191.479H518.852C540.233 191.479 558.051 173.964 558.051 152.245V138.933Z" fill="black"/>
<path d="M774 137.535V152.949C774 194.986 739.79 229.316 697.74 229.316H691.326C649.276 229.316 615.066 194.986 615.066 152.949V137.535C615.066 95.4975 649.276 61.167 691.326 61.167H697.74C739.79 61.167 774 95.4975 774 137.535ZM736.226 138.236C736.226 116.516 719.122 99.7013 697.028 99.7013H692.039C670.657 99.7013 652.84 117.217 652.84 138.236V151.547C652.84 173.267 670.657 190.782 692.039 190.782H697.028C718.409 190.782 736.226 173.267 736.226 151.547V138.236Z" fill="black"/>
</svg>
