<?xml version="1.0" standalone="no"?>
<!DOCTYPE svg PUBLIC "-//W3C//DTD SVG 20010904//EN"
 "http://www.w3.org/TR/2001/REC-SVG-20010904/DTD/svg10.dtd">
<svg version="1.0" xmlns="http://www.w3.org/2000/svg"
 width="1101.000000pt" height="229.000000pt" viewBox="0 0 1101.000000 229.000000"
 preserveAspectRatio="xMidYMid meet">

<g transform="translate(0.000000,229.000000) scale(0.100000,-0.100000)"
fill="#000000" stroke="none">
<path d="M355 2280 c-226 -4 -264 -7 -288 -23 -57 -37 -54 21 -59 -1165 l-4
-1092 5503 0 5503 0 -2 1094 c-3 1088 -3 1095 -24 1122 -11 15 -33 37 -48 48
l-27 21 -5147 0 c-2831 0 -5264 -2 -5407 -5z m1336 -743 c63 -43 298 -237 314
-260 12 -18 15 -60 15 -247 0 -207 -2 -228 -20 -258 -32 -52 -74 -72 -156 -72
-93 0 -98 6 -102 127 -5 116 -12 123 -122 123 -108 0 -114 -6 -120 -123 -3
-57 -11 -101 -19 -111 -10 -12 -31 -16 -80 -16 -79 0 -126 20 -158 69 -22 33
-23 42 -23 257 0 122 3 230 6 239 6 16 298 259 339 283 33 19 89 14 126 -11z
m3943 13 c222 -32 309 -172 293 -470 -9 -176 -51 -272 -141 -325 -116 -68
-402 -75 -534 -13 -98 47 -144 128 -163 293 -22 191 19 368 104 440 83 71 259
101 441 75z m1867 -10 c57 -16 108 -67 129 -129 17 -51 21 -56 62 -68 57 -16
123 -74 139 -120 17 -54 6 -165 -30 -273 -37 -114 -67 -161 -124 -194 -100
-58 -339 -61 -447 -6 -69 35 -103 91 -146 241 -57 197 -22 302 118 350 44 15
54 22 59 46 14 69 62 126 126 148 46 17 67 18 114 5z m-3745 -24 c150 -46 204
-148 204 -386 0 -295 -82 -390 -350 -407 -165 -10 -294 22 -359 89 -67 69 -98
199 -88 371 15 268 131 363 427 353 63 -3 138 -12 166 -20z m5764 13 c189 -30
258 -124 267 -359 10 -260 -47 -379 -206 -428 -78 -23 -304 -23 -382 0 -159
49 -216 168 -206 428 7 191 53 283 165 331 85 37 237 49 362 28z"/>
<path d="M5335 1527 c-117 -31 -179 -88 -213 -196 -13 -43 -17 -91 -16 -211 0
-137 3 -162 23 -214 47 -119 123 -169 283 -186 104 -10 248 0 316 24 93 33
150 106 172 223 18 89 8 323 -15 388 -24 65 -95 136 -160 160 -66 23 -316 31
-390 12z m250 -387 c43 0 75 -4 75 -10 0 -6 -32 -10 -75 -10 l-75 0 -2 -77 -2
-78 -3 78 -4 77 -74 0 c-43 0 -75 4 -75 10 0 6 32 10 75 10 l75 0 2 78 2 77 3
-77 4 -78 74 0z"/>
<path d="M7375 1513 c-57 -30 -84 -64 -98 -123 l-6 -25 175 0 176 0 -5 33
c-17 100 -150 164 -242 115z"/>
<path d="M7304 1349 c-124 -16 -215 -77 -230 -155 -10 -52 2 -126 36 -235 36
-116 75 -173 138 -202 42 -20 64 -22 202 -22 147 0 158 1 205 26 62 31 96 80
130 184 55 170 55 257 0 323 -62 74 -269 109 -481 81z"/>
<path d="M3395 1506 c-160 -40 -215 -135 -215 -376 0 -302 87 -390 388 -390
274 0 363 80 379 340 11 182 -30 323 -112 381 -22 16 -67 35 -100 44 -72 18
-267 19 -340 1z m315 -232 c0 -19 -64 -211 -74 -221 -6 -6 -51 -24 -101 -38
-49 -15 -96 -30 -104 -33 -18 -7 -12 24 25 144 l26 84 107 35 c112 36 121 38
121 29z"/>
<path d="M3584 1228 l-91 -31 -28 -94 c-15 -51 -26 -96 -23 -98 2 -3 46 9 96
26 l92 31 25 81 c14 45 28 90 31 100 7 21 8 22 -102 -15z"/>
<path d="M9227 1510 c-159 -40 -220 -145 -220 -380 0 -208 37 -296 151 -352
63 -31 73 -33 202 -36 192 -6 279 19 347 97 52 59 81 240 64 388 -17 143 -64
219 -166 265 -43 19 -69 22 -195 25 -80 1 -162 -2 -183 -7z m3 -380 c0 -5 -4
-10 -10 -10 -5 0 -10 5 -10 10 0 6 5 10 10 10 6 0 10 -4 10 -10z m170 0 c0 -5
-4 -10 -10 -10 -5 0 -10 5 -10 10 0 6 5 10 10 10 6 0 10 -4 10 -10z m170 0 c0
-5 -4 -10 -10 -10 -5 0 -10 5 -10 10 0 6 5 10 10 10 6 0 10 -4 10 -10z"/>
</g>
</svg>
