<?xml version="1.0" encoding="UTF-8"?>
<!DOCTYPE svg PUBLIC "-//W3C//DTD SVG 1.1//EN" "http://www.w3.org/Graphics/SVG/1.1/DTD/svg11.dtd">
<svg xmlns="http://www.w3.org/2000/svg" version="1.1" width="1101px" height="229px" style="shape-rendering:geometricPrecision; text-rendering:geometricPrecision; image-rendering:optimizeQuality; fill-rule:evenodd; clip-rule:evenodd" xmlns:xlink="http://www.w3.org/1999/xlink">
<g><path style="opacity:1" fill="#000000" d="M 470.5,0.5 C 677.555,0.00328365 884.555,0.503284 1091.5,2C 1095.06,3.89172 1097.56,6.72506 1099,10.5C 1099.5,82.8326 1099.67,155.166 1099.5,227.5C 861.833,227.5 624.167,227.5 386.5,227.5C 257.833,227.5 129.167,227.5 0.5,227.5C 0.333337,155.166 0.500004,82.8326 1,10.5C 2.83333,6 6,2.83333 10.5,1C 163.833,0.500001 317.166,0.333334 470.5,0.5 Z"/></g>
<g><path style="opacity:1" fill="#ee8404" d="M 156.5,72.5 C 162.026,71.711 167.026,72.8777 171.5,76C 179.877,83.3792 188.544,90.3792 197.5,97C 199.123,99.0795 200.623,101.246 202,103.5C 202.667,117.5 202.667,131.5 202,145.5C 201.367,150.612 198.867,154.445 194.5,157C 188.251,158.536 181.917,158.87 175.5,158C 174.874,157.25 174.374,156.416 174,155.5C 173.667,149.5 173.333,143.5 173,137.5C 172.167,136.667 171.333,135.833 170.5,135C 164.5,134.333 158.5,134.333 152.5,135C 151.667,135.833 150.833,136.667 150,137.5C 149.667,143.5 149.333,149.5 149,155.5C 148.5,156.667 147.667,157.5 146.5,158C 141.167,158.667 135.833,158.667 130.5,158C 125.162,155.993 121.996,152.159 121,146.5C 120.333,132.167 120.333,117.833 121,103.5C 123.203,99.8045 126.037,96.6378 129.5,94C 138.687,86.9694 147.687,79.8028 156.5,72.5 Z"/></g>
<g><path style="opacity:1" fill="#c4c4c4" d="M 926.5,74.5 C 938.385,73.7358 950.052,74.9025 961.5,78C 971.219,82.7417 976.719,90.575 978,101.5C 978.667,110.833 978.667,120.167 978,129.5C 975.251,146.801 965.085,155.634 947.5,156C 933.564,158.395 920.564,156.061 908.5,149C 905.213,145.707 902.713,141.873 901,137.5C 897.752,122.812 897.752,108.146 901,93.5C 905.95,82.3812 914.45,76.0479 926.5,74.5 Z"/></g>
<g><path style="opacity:1" fill="#000000" d="M 925.5,76.5 C 966.177,70.6768 983.01,88.0101 976,128.5C 974.068,144.097 965.235,152.597 949.5,154C 941.167,154.667 932.833,154.667 924.5,154C 910.881,151.381 903.048,143.214 901,129.5C 900.117,118.117 900.45,106.783 902,95.5C 906.15,84.508 913.984,78.1746 925.5,76.5 Z"/></g>
<g><path style="opacity:1" fill="#cdcdcd" d="M 740.5,73.5 C 753.847,73.0142 761.681,79.3475 764,92.5C 779.99,95.8257 786.323,105.492 783,121.5C 781.538,127.553 779.871,133.553 778,139.5C 775.071,148.096 769.237,153.596 760.5,156C 751.207,157.442 741.874,157.776 732.5,157C 723.1,155.723 716.266,150.889 712,142.5C 707.993,132.127 705.66,121.461 705,110.5C 707.32,100.222 713.82,94.3891 724.5,93C 726.026,83.3128 731.36,76.8128 740.5,73.5 Z"/></g>
<g><path style="opacity:1" fill="#020202" d="M 735.5,92.5 C 747.001,92.1501 758.335,93.3168 769.5,96C 777.656,98.8139 781.989,104.481 782.5,113C 780.963,124.317 777.796,135.151 773,145.5C 768.814,151.469 762.981,154.636 755.5,155C 747.5,155.667 739.5,155.667 731.5,155C 724.416,153.903 718.916,150.403 715,144.5C 708.651,132.127 706.317,119.127 708,105.5C 710.618,100.884 714.451,97.717 719.5,96C 724.954,94.7451 730.287,93.5784 735.5,92.5 Z"/></g>
<g><path style="opacity:1" fill="#070707" d="M 739.5,75.5 C 749.274,74.3024 756.44,77.9691 761,86.5C 761.494,88.1341 761.66,89.8008 761.5,91.5C 750.167,91.5 738.833,91.5 727.5,91.5C 728.074,83.5929 732.074,78.2596 739.5,75.5 Z"/></g>
<g><path style="opacity:1" fill="#dedfde" d="M 937.5,114.5 C 939.337,114.639 939.67,115.306 938.5,116.5C 937.702,116.043 937.369,115.376 937.5,114.5 Z"/></g>
<g><path style="opacity:1" fill="#dedfde" d="M 954.5,114.5 C 956.337,114.639 956.67,115.306 955.5,116.5C 954.702,116.043 954.369,115.376 954.5,114.5 Z"/></g>
<g><path style="opacity:1" fill="#d0d0d0" d="M 920.5,114.5 C 922.337,114.639 922.67,115.306 921.5,116.5C 920.702,116.043 920.369,115.376 920.5,114.5 Z"/></g>
<g><path style="opacity:1" fill="#cdcdcd" d="M 344.5,74.5 C 356.039,73.8695 367.373,75.0361 378.5,78C 388.004,82.488 393.504,89.988 395,100.5C 395.883,111.883 395.55,123.217 394,134.5C 391.695,144.14 385.862,150.64 376.5,154C 363.915,156.96 351.248,157.294 338.5,155C 329.591,152.747 323.091,147.581 319,139.5C 314.797,124.578 314.464,109.578 318,94.5C 322.978,82.6066 331.811,75.9399 344.5,74.5 Z"/></g>
<g><path style="opacity:1" fill="#020202" d="M 344.5,76.5 C 356.394,75.6894 368.06,76.8561 379.5,80C 385.061,82.5617 388.894,86.7284 391,92.5C 394.832,105.317 395.499,118.317 393,131.5C 390.323,146.107 381.49,153.607 366.5,154C 358.5,154.667 350.5,154.667 342.5,154C 327.424,151.589 319.257,142.756 318,127.5C 316.876,116.034 317.543,104.7 320,93.5C 324.861,82.9921 333.028,77.3255 344.5,76.5 Z"/></g>
<g><path style="opacity:1" fill="#cdcdcd" d="M 366.5,100.5 C 367.833,100.5 369.167,100.5 370.5,100.5C 368.627,108.329 366.294,115.996 363.5,123.5C 356.574,126.031 349.574,128.364 342.5,130.5C 342.881,122.637 344.714,114.97 348,107.5C 354.299,105.238 360.466,102.905 366.5,100.5 Z"/></g>
<g><path style="opacity:1" fill="#070707" d="M 367.5,102.5 C 368.043,102.56 368.376,102.893 368.5,103.5C 366.366,109.068 364.533,114.735 363,120.5C 362.5,121.667 361.667,122.5 360.5,123C 355.47,124.399 350.47,125.899 345.5,127.5C 344.833,127.167 344.167,126.833 343.5,126.5C 345.674,120.622 347.341,114.622 348.5,108.5C 354.917,106.471 361.251,104.471 367.5,102.5 Z"/></g>
<g><path style="opacity:1" fill="#c8c8c8" d="M 539.5,72.5 C 549.938,72.1537 560.272,72.9871 570.5,75C 584.027,79.5464 591.193,89.0464 592,103.5C 592.713,113.532 592.379,123.532 591,133.5C 587.845,148.318 578.678,156.484 563.5,158C 552.789,158.844 542.122,158.511 531.5,157C 521.719,154.539 514.885,148.705 511,139.5C 506.042,122.71 506.375,106.044 512,89.5C 518.294,79.1068 527.46,73.4401 539.5,72.5 Z"/></g>
<g><path style="opacity:1" fill="#010101" d="M 537.5,74.5 C 547.878,74.1963 558.211,74.6963 568.5,76C 582.238,79.957 589.405,89.1236 590,103.5C 590.865,113.552 590.531,123.552 589,133.5C 585.841,146.989 577.341,154.489 563.5,156C 552.45,156.879 541.45,156.546 530.5,155C 522.159,152.659 516.326,147.493 513,139.5C 508.368,123.491 508.368,107.491 513,91.5C 518.166,81.501 526.333,75.8343 537.5,74.5 Z"/></g>
<g><path style="opacity:1" fill="#868686" d="M 550.5,99.5 C 551.487,104.305 551.821,109.305 551.5,114.5C 556.544,114.173 561.544,114.506 566.5,115.5C 566.376,116.107 566.043,116.44 565.5,116.5C 560.695,115.513 555.695,115.179 550.5,115.5C 550.5,110.167 550.5,104.833 550.5,99.5 Z"/></g>
<g><path style="opacity:1" fill="#e9e9e9" d="M 550.5,99.5 C 550.5,104.833 550.5,110.167 550.5,115.5C 555.695,115.179 560.695,115.513 565.5,116.5C 560.5,116.5 555.5,116.5 550.5,116.5C 550.167,136.5 549.833,136.5 549.5,116.5C 529.5,115.833 529.5,115.167 549.5,114.5C 549.179,109.305 549.513,104.305 550.5,99.5 Z"/></g>
<g><path style="opacity:1" fill="#797371" d="M 8.5,-0.5 C 162.5,-0.5 316.5,-0.5 470.5,-0.5C 470.5,-0.166667 470.5,0.166667 470.5,0.5C 317.166,0.333334 163.833,0.500001 10.5,1C 6,2.83333 2.83333,6 1,10.5C 0.500004,82.8326 0.333337,155.166 0.5,227.5C 129.167,227.5 257.833,227.5 386.5,227.5C 386.5,227.833 386.5,228.167 386.5,228.5C 257.5,228.5 128.5,228.5 -0.5,228.5C -0.5,155.5 -0.5,82.5 -0.5,9.5C 1.76189,5.56787 4.76189,2.23454 8.5,-0.5 Z"/></g>
<g><path style="opacity:1" fill="#4a3c39" d="M 470.5,0.5 C 470.5,0.166667 470.5,-0.166667 470.5,-0.5C 677.167,-0.5 883.833,-0.5 1090.5,-0.5C 1094.43,1.76189 1097.77,4.76189 1100.5,8.5C 1100.5,81.8333 1100.5,155.167 1100.5,228.5C 862.5,228.5 624.5,228.5 386.5,228.5C 386.5,228.167 386.5,227.833 386.5,227.5C 624.167,227.5 861.833,227.5 1099.5,227.5C 1099.67,155.166 1099.5,82.8326 1099,10.5C 1097.56,6.72506 1095.06,3.89172 1091.5,2C 884.555,0.503284 677.555,0.00328365 470.5,0.5 Z"/></g>
</svg>
